<?xml version="1.0" encoding="UTF-8"?>
<svg width="250px" height="21px" viewBox="0 0 250 21" version="1.1" xmlns="http://www.w3.org/2000/svg" xmlns:xlink="http://www.w3.org/1999/xlink">
    <!-- Generator: Sketch 43.2 (39069) - http://www.bohemiancoding.com/sketch -->
    <title>Logo</title>
    <desc>Created with Sketch.</desc>
    <defs>
        <polygon id="path-1" points="0.196970575 0.153780939 16.6322004 0.153780939 16.6322004 20.5603425 0.196970575 20.5603425 0.196970575 0.153780939"></polygon>
        <polygon id="path-3" points="0.233451883 0.153780939 16.6684988 0.153780939 16.6684988 20.5603425 0.233451883 20.5603425 0.233451883 0.153780939"></polygon>
    </defs>
    <g id="Welcome" stroke="none" stroke-width="1" fill="none" fill-rule="evenodd">
        <g id="NeedsGap-V2" transform="translate(-94.000000, -45.000000)">
            <g id="Header">
                <g id="Logo" transform="translate(94.000000, 45.000000)">
                    <g id="Group-3" transform="translate(40.550564, 0.127897)">
                        <mask id="mask-2" fill="white">
                            <use xlink:href="#path-1"></use>
                        </mask>
                        <g id="Clip-2"></g>
                        <path d="M7.25106039,16.5395061 C9.4264292,16.5395061 10.8028956,15.1625189 11.1884075,12.9318504 L12.0695375,7.89228563 C12.4550495,5.68921878 11.6291133,4.17450469 9.53625365,4.17450469 C7.36116644,4.17450469 6.0669276,5.49628848 5.65410033,7.75455875 L4.74537345,12.7392017 C4.35986149,14.9971903 5.21339455,16.5395061 7.25106039,16.5395061 M6.61773943,20.5603425 C1.90936837,20.5603425 -0.486212528,17.1453354 0.367320527,12.2434976 L1.22085358,7.3689798 C2.01947442,2.85243926 5.29618528,0.153668279 10.1146624,0.153668279 C14.8230334,0.153668279 17.3011235,3.34814339 16.4751873,8.30546629 L15.6216543,13.1797024 C14.8230334,17.8888916 11.5739195,20.5603425 6.61773943,20.5603425" id="Fill-1" fill="#FFFFFF" mask="url(#mask-2)"></path>
                    </g>
                    <path d="M58.7315504,20.3302344 C58.4012323,20.3302344 58.2359324,20.1099841 58.2911262,19.8072102 L61.5675555,1.08029701 C61.6227493,0.804843243 61.7880492,0.639796302 62.0631735,0.639796302 L65.9456084,0.639796302 C66.2210143,0.639796302 66.4136295,0.749639829 66.4961386,1.05297696 L67.8728866,5.7618845 C68.3135924,7.46952888 69.0018256,10.2508233 69.2499162,11.4072785 L69.3324253,11.4072785 C69.9657463,10.278425 71.5624247,7.46952888 72.6916453,5.70696273 L75.7754594,0.942570128 C75.9131624,0.722319772 76.0784622,0.639796302 76.3535865,0.639796302 L80.3737244,0.639796302 C80.7040426,0.639796302 80.8693424,0.860046657 80.8141486,1.16282048 L77.5377193,19.8897337 C77.4825255,20.1649058 77.3172256,20.3302344 77.0145044,20.3302344 L73.6552844,20.3302344 C73.3522816,20.3302344 73.1869817,20.1099841 73.2148602,19.8072102 L73.8205843,16.3096797 C74.1784993,14.1615346 74.9492417,10.4161519 75.5552473,7.57965405 L75.4175444,7.55205235 C74.7566265,8.81891437 73.2697725,11.3523568 72.1684304,13.142243 L70.4061705,15.896499 C70.2684675,16.1443511 70.1031676,16.2268745 69.8553586,16.2268745 L67.3496717,16.2268745 C67.0745474,16.2268745 66.8816506,16.0891477 66.7991415,15.8136939 L65.9732053,13.0047977 C65.5324995,11.297435 64.8991786,8.92903954 64.6513696,7.68977923 L64.5136666,7.68977923 C64.1557516,10.5814805 63.6325366,13.831159 63.2473063,16.2268745 L62.6139853,19.8897337 C62.5863884,20.1925075 62.3934916,20.3302344 62.0907704,20.3302344 L58.7315504,20.3302344 Z" id="Fill-4" fill="#FFFFFF"></path>
                    <path d="M81.8863449,20.3302344 C81.5560268,20.3302344 81.3907269,20.1099841 81.4459208,19.8072102 L84.72235,1.08029701 C84.7775438,0.804843243 84.9428437,0.639796302 85.217968,0.639796302 L89.1004029,0.639796302 C89.3758089,0.639796302 89.568424,0.749639829 89.6509332,1.05297696 L91.0276812,5.7618845 C91.4683869,7.46952888 92.1566201,10.2508233 92.4047107,11.4072785 L92.4872199,11.4072785 C93.1205408,10.278425 94.7172193,7.46952888 95.8464399,5.70696273 L98.9302539,0.942570128 C99.0679569,0.722319772 99.2332568,0.639796302 99.5083811,0.639796302 L103.528519,0.639796302 C103.858837,0.639796302 104.024137,0.860046657 103.968943,1.16282048 L100.692514,19.8897337 C100.63732,20.1649058 100.47202,20.3302344 100.169299,20.3302344 L96.810079,20.3302344 C96.5070761,20.3302344 96.3417763,20.1099841 96.3696548,19.8072102 L96.9753788,16.3096797 C97.3332939,14.1615346 98.1040362,10.4161519 98.7100419,7.57965405 L98.5723389,7.55205235 C97.911421,8.81891437 96.424567,11.3523568 95.3232249,13.142243 L93.560965,15.896499 C93.423262,16.1443511 93.2579622,16.2268745 93.0101532,16.2268745 L90.5044662,16.2268745 C90.2293419,16.2268745 90.0364451,16.0891477 89.953936,15.8136939 L89.1279999,13.0047977 C88.6872941,11.297435 88.0539731,8.92903954 87.8061641,7.68977923 L87.6684612,7.68977923 C87.3105461,10.5814805 86.7873312,13.831159 86.4021008,16.2268745 L85.7687799,19.8897337 C85.7411829,20.1925075 85.5482862,20.3302344 85.2455649,20.3302344 L81.8863449,20.3302344 Z" id="Fill-6" fill="#FFFFFF"></path>
                    <path d="M111.732095,20.6605818 C107.243936,20.6605818 104.848355,17.6038336 105.701888,12.5093471 L107.739554,1.08026885 C107.794748,0.804815078 107.959766,0.639768137 108.235172,0.639768137 L111.704498,0.639768137 C112.035098,0.639768137 112.200116,0.860018492 112.144922,1.16279232 L110.025029,13.0047696 C109.61192,15.4007667 110.575559,16.6124253 112.365416,16.6124253 C114.210185,16.6124253 115.504424,15.4832902 115.917251,13.1976999 L118.009829,1.08026885 C118.065023,0.804815078 118.230323,0.639768137 118.505447,0.639768137 L121.975055,0.639768137 C122.277776,0.639768137 122.443076,0.860018492 122.415479,1.16279232 L120.267707,13.5280754 C119.496965,18.0167326 116.660678,20.6605818 111.732095,20.6605818" id="Fill-8" fill="#FFFFFF"></path>
                    <path d="M123.322685,20.3302344 C123.019964,20.3302344 122.854664,20.1099841 122.909858,19.8072102 L126.213884,1.08029701 C126.241481,0.804843243 126.434378,0.639796302 126.709502,0.639796302 L130.344128,0.639796302 C130.619253,0.639796302 130.839746,0.749639829 130.89494,1.0250936 L133.070027,7.55205235 C133.703067,9.56247055 134.446775,12.2060381 134.777093,13.4729001 L134.914796,13.4455801 C135.190202,10.9946612 135.60303,8.21308506 136.016138,5.81708791 L136.842356,1.08029701 C136.897268,0.804843243 137.062568,0.639796302 137.337974,0.639796302 L140.696913,0.639796302 C141.027512,0.639796302 141.192531,0.860046657 141.137618,1.16282048 L137.833311,19.8897337 C137.778398,20.1649058 137.613099,20.3302344 137.310377,20.3302344 L133.703067,20.3302344 C133.455258,20.3302344 133.262643,20.2198276 133.152536,19.9446555 L130.977449,14.1063312 C130.206425,12.0961946 129.407805,9.1492899 129.077768,7.55205235 L128.96738,7.60697411 C128.719571,10.2232216 128.388972,13.2250481 127.920951,15.7587721 L127.20512,19.8897337 C127.150208,20.1649058 126.984908,20.3302344 126.709502,20.3302344 L123.322685,20.3302344 Z" id="Fill-10" fill="#FFFFFF"></path>
                    <path d="M146.120297,19.8896211 C146.065385,20.1650748 145.900085,20.3301218 145.624679,20.3301218 L142.210547,20.3301218 C141.907544,20.3301218 141.742244,20.1098714 141.770123,19.8070976 L145.073867,1.080466 C145.129061,0.804730583 145.294361,0.639683642 145.597364,0.639683642 L148.983899,0.639683642 C149.314499,0.639683642 149.479517,0.860215647 149.424323,1.16298947 L146.120297,19.8896211 Z" id="Fill-12" fill="#FFFFFF"></path>
                    <path d="M166.054307,0.639768137 C166.384907,0.639768137 166.549925,0.832416785 166.494731,1.16279232 L165.944201,4.19222048 C165.916885,4.46767425 165.751586,4.63300284 165.448864,4.63300284 L160.685299,4.63300284 L157.986997,19.8897055 C157.931522,20.1648777 157.766504,20.3302063 157.491098,20.3302063 L154.049369,20.3302063 C153.746366,20.3302063 153.581348,20.1099559 153.63626,19.8071821 L156.334562,4.63300284 L151.626472,4.63300284 C151.295873,4.63300284 151.158451,4.41275249 151.185767,4.10941536 L151.736297,1.08026885 C151.791772,0.804815078 151.956509,0.639768137 152.232196,0.639768137 L166.054307,0.639768137 Z" id="Fill-14" fill="#FFFFFF"></path>
                    <path d="M169.770653,20.3302344 C169.440054,20.3302344 169.275035,20.1373041 169.330229,19.8072102 L170.541396,13.2526498 L166.879454,1.16282048 C166.769348,0.860046657 166.934648,0.639796302 167.264966,0.639796302 L170.844399,0.639796302 C171.119804,0.639796302 171.285104,0.777241536 171.340017,1.05297696 L173.350085,9.17660996 L173.404998,9.17660996 L178.086053,0.970171835 C178.223756,0.749639829 178.388775,0.639796302 178.636584,0.639796302 L182.436509,0.639796302 C182.794424,0.639796302 182.932127,0.887648364 182.739512,1.2180239 L174.947046,13.3351733 L173.708001,19.8897337 C173.653088,20.1925075 173.487788,20.3302344 173.212664,20.3302344 L169.770653,20.3302344 Z" id="Fill-16" fill="#FFFFFF"></path>
                    <path d="M194.880745,1.08038151 C194.908342,0.804646088 195.100958,0.639880797 195.376363,0.639880797 L198.790777,0.639880797 C199.093498,0.639880797 199.258798,0.860131152 199.231201,1.16290498 L195.899578,19.8895366 C195.872263,20.1649903 195.706963,20.3303189 195.40396,20.3303189 L191.989547,20.3303189 C191.686825,20.3303189 191.521525,20.1097869 191.576719,19.8070131 L192.898273,12.3714512 L187.198666,12.3714512 L185.876831,19.8895366 C185.821918,20.1649903 185.656618,20.3303189 185.353897,20.3303189 L181.96708,20.3303189 C181.636762,20.3303189 181.471462,20.1097869 181.526375,19.8070131 L184.830964,1.08038151 C184.885876,0.804646088 185.050894,0.639880797 185.3263,0.639880797 L188.740433,0.639880797 C189.071032,0.639880797 189.208454,0.860131152 189.181138,1.16290498 L187.914778,8.3782165 L193.586507,8.3782165 L194.880745,1.08038151 Z" id="Fill-18" fill="#FFFFFF"></path>
                    <path d="M214.896983,4.13729872 C214.84207,4.41275249 214.676771,4.57779943 214.401365,4.57779943 L206.912182,4.57779943 L206.223668,8.40570555 L212.776808,8.40570555 C213.07981,8.40570555 213.244829,8.59863585 213.189917,8.92901138 L212.666702,11.820431 C212.611508,12.0961664 212.446489,12.2612134 212.170802,12.2612134 L205.535153,12.2612134 L204.819323,16.3645733 L212.611508,16.3645733 C212.914511,16.3645733 213.07981,16.5848236 213.051932,16.8878791 L212.556314,19.8897055 C212.501402,20.1924794 212.336102,20.3302063 212.033381,20.3302063 L200.27597,20.3302063 C199.945652,20.3302063 199.807949,20.1099559 199.835546,19.8071821 L203.16745,1.08026885 C203.222363,0.804815078 203.387662,0.639768137 203.662787,0.639768137 L214.979492,0.639768137 C215.310091,0.639768137 215.475391,0.860018492 215.419916,1.16279232 L214.896983,4.13729872 Z" id="Fill-20" fill="#FFFFFF"></path>
                    <path d="M221.696918,9.86544154 L224.119814,9.86544154 C225.964865,9.86544154 226.983416,9.06668193 227.259104,7.38663926 C227.534228,5.56915135 226.873592,4.60534481 225.05642,4.60534481 L222.605645,4.60534481 L221.696918,9.86544154 Z M216.024626,20.3301499 C215.69459,20.3301499 215.52929,20.1098996 215.584202,19.8071257 L218.860913,1.08049417 C218.916107,0.804758748 219.081125,0.639711807 219.384128,0.639711807 L225.716774,0.639711807 C230.177618,0.639711807 232.352987,3.72406174 231.692069,7.71729644 C231.224048,10.581396 229.599209,12.4264856 226.900907,13.2525653 L229.985003,19.7792424 C230.150303,20.1098996 230.012318,20.3301499 229.654403,20.3301499 L225.909671,20.3301499 C225.634265,20.3301499 225.44165,20.2200248 225.359141,19.9721727 L222.825857,13.7758711 L221.008685,13.7758711 L219.962255,19.8896492 C219.907343,20.1648213 219.742043,20.3301499 219.43904,20.3301499 L216.024626,20.3301499 Z" id="Fill-22" fill="#FFFFFF"></path>
                    <g id="Group-26" transform="translate(232.884143, 0.127897)">
                        <mask id="mask-4" fill="white">
                            <use xlink:href="#path-3"></use>
                        </mask>
                        <g id="Clip-25"></g>
                        <path d="M7.28735878,16.5395061 C9.46272759,16.5395061 10.839194,15.1625189 11.2247059,12.9318504 L12.1058359,7.89228563 C12.4913478,5.68921878 11.6654117,4.17450469 9.57255203,4.17450469 C7.39746483,4.17450469 6.10322599,5.49628848 5.69039872,7.75455875 L4.78167184,12.7392017 C4.39615988,14.9971903 5.24997453,16.5395061 7.28735878,16.5395061 M6.65403782,20.5603425 C1.94566676,20.5603425 -0.449914141,17.1453354 0.403900515,12.2434976 L1.25715197,7.3689798 C2.0557728,2.85243926 5.33248367,0.153668279 10.1509608,0.153668279 C14.8593318,0.153668279 17.3374219,3.34814339 16.5114857,8.30546629 L15.6579527,13.1797024 C14.8593318,17.8888916 11.6104995,20.5603425 6.65403782,20.5603425" id="Fill-24" fill="#FFFFFF" mask="url(#mask-4)"></path>
                    </g>
                    <path d="M26.0568632,9.41575903 C26.0568632,9.41575903 22.6010541,10.2283195 20.7852899,11.0881972 C18.9664281,11.9500464 16.6817981,10.8775229 16.1473191,10.6493863 C15.6128402,10.4206865 18.5057287,8.81697098 20.0148292,8.56517582 C21.5242113,8.31394395 23.7880029,8.15650156 24.700109,8.56517582 C25.6116518,8.97441337 26.0568632,9.41575903 26.0568632,9.41575903" id="Fill-27" fill="#FFFFFF"></path>
                    <path d="M25.0025204,4.26406942 C25.0025204,4.26406942 27.725885,4.85046486 27.7129314,5.45319602 C27.6996961,6.05592717 26.628767,5.7821633 27.1995725,6.50684893 C27.7706596,7.23125292 26.8608063,7.45685462 26.6335542,8.00072091 C26.4065837,8.54430555 26.0568351,9.41573087 26.0568351,9.41573087 C26.0568351,9.41573087 24.3142872,8.82933542 23.1929515,8.70540939 C22.0716158,8.58148336 19.6428059,8.63781337 17.8639315,9.61175932 C16.0850571,10.5857053 13.7787438,11.8953781 12.8201735,12.9191761 C11.8616032,13.9435374 10.766738,15.5044421 8.21233405,15.1137935 C5.65821171,14.7234265 4.51631908,14.1927977 3.3828745,13.4841661 C2.2488667,12.7755346 0,10.4612159 0,10.4612159 C0,10.4612159 3.19420173,11.4354435 4.18571935,10.3496825 C5.17695536,9.26420313 6.73815208,6.28152888 7.82907489,5.79540085 C8.91971611,5.30927283 11.8627296,5.65401252 12.3313139,4.61359716 C12.7998982,3.57318179 12.6261503,2.35617183 12.0851945,2.37588734 C11.5442387,2.39560284 11.0249662,2.41926145 11.0249662,2.41926145 C11.0249662,2.41926145 13.9392564,0.697816216 16.4840859,1.66950896 C19.029197,2.64092006 25.0025204,4.26406942 25.0025204,4.26406942" id="Fill-29" fill="#FFFFFF"></path>
                    <path d="M13.8283901,2.78678663 C13.8283901,2.91240256 14.2057356,4.13898862 13.6712566,4.57920768 L13.1367777,5.01970839 C13.1367777,5.01970839 16.1552603,4.6422973 18.0104486,5.01970839 C19.8656369,5.39711949 20.0543097,5.55399858 20.0543097,5.55399858 C20.0543097,5.55399858 18.9222731,3.79284068 18.3877941,3.79284068 C17.8530336,3.79284068 16.9099513,4.04463585 16.3123937,3.79284068 C15.7151177,3.54160882 13.8283901,2.78678663 13.8283901,2.78678663" id="Fill-31" fill="#FFFFFF"></path>
                    <path d="M31.5069717,20.6828603 C27.0340192,20.6828603 24.377394,17.8086213 25.2176918,12.9281889 L26.1666877,7.42418321 C26.9526365,2.89609502 30.2870756,0.591352489 34.678927,0.591352489 C36.7931883,0.591352489 38.6908984,1.32364267 40.019211,2.43503385 C40.2633592,2.5978276 40.2633592,2.84173656 40.07356,3.08564552 L38.0944672,5.41770811 C37.9317017,5.63457866 37.7148688,5.66161707 37.4439685,5.49910498 C36.5763554,4.90257013 35.4648757,4.52290583 34.2993286,4.52290583 C32.1304366,4.52290583 30.8291578,5.85144922 30.5039085,7.85792432 L29.5551942,13.3348916 C29.2026296,15.5311989 30.1786591,16.7239869 32.2932021,16.7239869 C33.5401319,16.7239869 34.976861,16.2902458 36.115656,15.5311989 C36.3865563,15.3684051 36.6036707,15.4224819 36.7661546,15.721031 L38.0403998,18.3778361 C38.1758499,18.6763852 38.1488162,18.8388973 37.959017,18.9476142 C36.2781398,19.9505701 34.1909122,20.6828603 31.5069717,20.6828603" id="Fill-33" fill="#FFFFFF"></path>
                    <path d="M30.2796413,9.13216558 C30.0861813,9.84107881 28.9899081,10.1866634 28.6598715,10.210322 C28.3295534,10.2339807 28.6745148,10.8296706 28.6745148,10.8296706 L29.0391883,11.2698896 C29.0391883,11.2698896 30.5632137,10.3871983 30.5632137,9.90613997 C30.5632137,9.4253633 30.4379011,8.2418697 30.4379011,8.2418697 C30.4379011,8.2418697 30.3092094,9.0242936 30.2796413,9.13216558" id="Fill-35" fill="#FFFFFF"></path>
                    <path d="M28.5474282,11.5179388 C28.5474282,11.5179388 28.7408882,11.9285846 29.0548735,11.9528065 C29.3688587,11.9770284 29.5262738,11.9528065 29.5262738,11.9528065 C29.5262738,11.9528065 29.3449226,11.7835349 29.3328138,11.5782119 C29.3207049,11.3726074 29.2843784,11.2036174 29.1396354,11.1433442 C28.9943292,11.0827895 28.7166705,11.0585676 28.6319086,11.1433442 C28.5474282,11.2278393 28.5474282,11.5179388 28.5474282,11.5179388" id="Fill-37" fill="#FFFFFF"></path>
                    <path d="M28.9758562,10.6193624 C28.9758562,10.9148134 29.1236968,11.2972942 28.8285788,11.2972942 C28.5331792,11.2972942 27.9736377,11.1623838 27.9736377,10.8669329 C27.9736377,10.5717636 28.0781117,10.118307 28.3735113,10.118307 C28.6686293,10.118307 28.9758562,10.3241932 28.9758562,10.6193624" id="Fill-39" fill="#FFFFFF"></path>
                    <path d="M28.400714,11.4098415 C28.400714,11.4098415 28.2013404,11.8337249 27.8772175,11.8587917 C27.5530946,11.8838586 27.3908923,11.8587917 27.3908923,11.8587917 C27.3908923,11.8587917 27.5778755,11.6841687 27.5905475,11.4723679 C27.602938,11.2602853 27.6401093,11.0856623 27.7899211,11.0234176 C27.9394513,10.9608913 28.2261213,10.9358245 28.3134177,11.0234176 C28.400714,11.1107292 28.400714,11.4098415 28.400714,11.4098415" id="Fill-41" fill="#FFFFFF"></path>
                    <path d="M26.4671561,7.95441764 C26.8076119,8.61883016 27.8467201,10.0051118 28.1485965,10.1372057 C28.4786331,10.2819738 28.0934027,10.4253337 28.0413065,10.5064489 C27.9979399,10.574045 27.9737222,10.8207704 27.9737222,10.8207704 C27.9737222,10.8207704 25.7487916,9.64628962 25.7487916,9.16523129 C25.7487916,8.68417297 26.0664377,7.03314026 26.0664377,7.03314026 C26.0664377,7.03314026 26.4144967,7.85105206 26.4671561,7.95441764" id="Fill-43" fill="#FFFFFF"></path>
                    <path d="M28.0587376,10.3704401 C28.0587376,10.3704401 27.9683436,10.4135326 27.9644012,10.4608498 L27.9604588,10.5078853 C27.9604588,10.5078853 26.6949433,9.42888393 26.482616,9.39959232 C26.2702888,9.36973741 26.0582431,9.22919403 26.0582431,9.22919403 C26.030083,9.21651977 26.4809264,9.21173172 26.8599615,9.47028649 C27.1150922,9.64434623 28.0680304,10.3774814 28.0587376,10.3704401" id="Fill-45" fill="#FFFFFF"></path>
                    <path d="M6.05439635,10.168835 C6.05439635,10.168835 5.72407821,11.4424566 4.56866874,11.5013215 L3.41325926,11.560468 C3.41325926,11.560468 6.45511477,13.8719701 7.65783324,13.7539587 C8.86055171,13.636229 9.68592465,12.6453841 10.4879247,12.6690427 C11.2896431,12.6927013 11.4310069,12.7397368 11.4310069,12.7397368 C11.4310069,12.7397368 10.0869247,10.4992105 8.9078607,10.4048578 C7.72879673,10.310505 6.05439635,10.168835 6.05439635,10.168835" id="Fill-47" fill="#FFFFFF"></path>
                </g>
            </g>
        </g>
    </g>
</svg>