<?xml version="1.0" encoding="utf-8"?>
<!-- Generator: Adobe Illustrator 21.1.0, SVG Export Plug-In . SVG Version: 6.00 Build 0)  -->
<svg version="1.1" id="Layer_1" xmlns="http://www.w3.org/2000/svg" xmlns:xlink="http://www.w3.org/1999/xlink" x="0px" y="0px"
	 viewBox="0 0 232.2 28.2" style="enable-background:new 0 0 232.2 28.2;" xml:space="preserve">
<style type="text/css">
	.st0{fill:#297083;}
	.st1{fill:#E1B83C;}
	.st2{fill:#C05427;}
	.st3{fill:#ED6F23;}
	.st4{fill:#E9854D;}
</style>
<title>Logo2</title>
<desc>Created with Sketch.</desc>
<g>
	<g>
		<path class="st0" d="M46.4,22.3c-3.8,0-6-2.8-5.4-6.4l0.6-3.5C42.2,9,45,6.9,48.9,6.9c3.8,0,6.1,2.8,5.5,6.3l-0.6,3.5
			C53.1,20.3,50.5,22.3,46.4,22.3z M46.9,18.6c1.5,0,2.4-0.8,2.6-2.1l0.6-3.6c0.2-1.3-0.4-2.3-1.7-2.3c-1.3,0-2.3,0.8-2.5,2.1
			l-0.6,3.6C45,17.7,45.5,18.6,46.9,18.6z"/>
		<path class="st0" d="M71.3,6.9c3.9,0,5.8,2.9,5.2,6.8L75,21.5c0,0.3-0.2,0.4-0.5,0.4h-3.2c-0.3,0-0.5-0.2-0.4-0.5l1.4-8.2
			c0.3-1.8-0.3-2.6-1.7-2.6c-0.7,0-1.4,0.2-1.9,0.5c0.1,0.8,0.1,1.7,0,2.7l-1.4,7.7c0,0.3-0.2,0.4-0.5,0.4h-3.2
			c-0.3,0-0.5-0.2-0.4-0.5l1.4-8.2c0.3-1.8-0.3-2.6-1.5-2.6c-0.6,0-1.2,0.1-1.6,0.3l-1.9,10.5c-0.1,0.3-0.2,0.4-0.5,0.4h-3.2
			c-0.3,0-0.5-0.2-0.4-0.5l2.3-12.8c0.1-0.2,0.2-0.4,0.4-0.5c1.7-0.7,3.7-1.1,5.4-1.1c1.4,0,2.6,0.4,3.5,1.1
			C68.5,7.4,69.9,6.9,71.3,6.9z"/>
		<path class="st0" d="M93.7,6.9c3.9,0,5.8,2.9,5.2,6.8l-1.4,7.7c0,0.3-0.2,0.4-0.5,0.4h-3.2c-0.3,0-0.5-0.2-0.4-0.5l1.4-8.2
			c0.3-1.8-0.3-2.6-1.7-2.6c-0.7,0-1.4,0.2-1.9,0.5c0.1,0.8,0.1,1.7,0,2.7l-1.4,7.7c0,0.3-0.2,0.4-0.5,0.4h-3.2
			c-0.3,0-0.5-0.2-0.4-0.5l1.4-8.2c0.3-1.8-0.3-2.6-1.5-2.6c-0.6,0-1.2,0.1-1.6,0.3l-1.9,10.5c-0.1,0.3-0.2,0.4-0.5,0.4h-3.2
			c-0.3,0-0.5-0.2-0.4-0.5l2.3-12.8c0.1-0.2,0.2-0.4,0.4-0.5c1.7-0.7,3.7-1.1,5.4-1.1c1.4,0,2.6,0.4,3.5,1.1
			C90.9,7.4,92.3,6.9,93.7,6.9z"/>
		<path class="st0" d="M114.6,7.3c0.3,0,0.5,0.2,0.4,0.5l-2.3,12.8c-0.1,0.3-0.2,0.4-0.4,0.5c-1.7,0.7-3.9,1.1-5.6,1.1
			c-4.2,0-6.1-2.7-5.4-6.6l1.4-7.9c0.1-0.3,0.2-0.4,0.5-0.4h3.3c0.3,0,0.5,0.2,0.4,0.5l-1.4,8.2c-0.3,1.7,0.3,2.6,1.7,2.6
			c0.7,0,1.3-0.1,1.7-0.3l1.9-10.5c0-0.3,0.2-0.4,0.5-0.4H114.6z"/>
		<path class="st0" d="M116,21.9c-0.3,0-0.5-0.2-0.4-0.5l2.3-12.8c0.1-0.2,0.2-0.4,0.4-0.5c1.8-0.7,3.9-1.1,5.7-1.1
			c4.2,0,6.1,2.7,5.4,6.7l-1.4,7.9c-0.1,0.3-0.2,0.4-0.5,0.4h-3.2c-0.3,0-0.5-0.2-0.4-0.5l1.4-8.2c0.3-1.8-0.3-2.6-1.8-2.6
			c-0.7,0-1.4,0.1-1.8,0.3l-1.9,10.5c-0.1,0.3-0.2,0.4-0.5,0.4H116z"/>
		<path class="st0" d="M131.3,21.9c-0.3,0-0.5-0.2-0.4-0.5l2.4-13.6c0-0.3,0.2-0.4,0.5-0.4h3.3c0.3,0,0.5,0.2,0.4,0.5l-2.4,13.6
			c-0.1,0.3-0.2,0.4-0.5,0.4H131.3z M135.9,5.3c-1.4,0-2.3-1.1-2-2.6c0.2-1.2,1.2-2,2.5-2c1.4,0,2.3,1.1,2,2.6
			C138.2,4.4,137.2,5.3,135.9,5.3z"/>
		<path class="st0" d="M144,11.2l-1,5.4c-0.2,1.3,0.2,1.9,1.4,1.9c0.2,0,0.5,0,0.8,0c0.3,0,0.5,0.1,0.4,0.5l-0.4,2.6
			c-0.1,0.3-0.2,0.4-0.5,0.5c-0.4,0.1-1,0.1-1.4,0.1c-3.1,0-5.1-1.9-4.4-6l2.1-12c0.1-0.3,0.2-0.4,0.5-0.4h2.7
			c0.3,0,0.5,0.2,0.5,0.5l-0.2,3.3h2.2c0.3,0,0.5,0.2,0.4,0.5l-0.4,2.6c-0.1,0.3-0.2,0.4-0.5,0.4H144z"/>
		<path class="st0" d="M157.6,7.7c0.1-0.3,0.2-0.4,0.5-0.4h3.2c0.3,0,0.5,0.2,0.4,0.5l-2.2,12.7c-0.9,5-3,7-7.6,7
			c-2.2,0-3.8-0.6-5-1.6c-0.2-0.2-0.2-0.4-0.1-0.7l1.7-2.2c0.2-0.3,0.4-0.3,0.7-0.1c0.8,0.5,1.8,0.9,3,0.9c1.8,0,2.7-0.8,3-2.7
			c-0.8,0.3-1.5,0.4-2.4,0.4c-3.4,0-5.3-2.6-4.7-6.3l1.3-7.4c0-0.3,0.2-0.4,0.5-0.4h3.2c0.3,0,0.5,0.2,0.4,0.5l-1.4,7.7
			c-0.3,1.7,0.4,2.4,1.7,2.4c0.8,0,1.5-0.2,1.9-0.5L157.6,7.7z"/>
		<path class="st1" d="M176.5,2.3c0-0.3,0.2-0.4,0.5-0.4h3.5c0.3,0,0.5,0.2,0.4,0.5l-3.4,19.1c0,0.3-0.2,0.4-0.5,0.4h-3.5
			c-0.3,0-0.5-0.2-0.4-0.5l1.3-7.6h-5.8l-1.3,7.7c-0.1,0.3-0.2,0.4-0.5,0.4h-3.4c-0.3,0-0.5-0.2-0.4-0.5l3.4-19.1
			c0.1-0.3,0.2-0.4,0.5-0.4h3.5c0.3,0,0.5,0.2,0.4,0.5l-1.3,7.3h5.8L176.5,2.3z"/>
		<path class="st1" d="M196.9,5.4c-0.1,0.3-0.2,0.4-0.5,0.4h-7.6L188,9.8h6.7c0.3,0,0.5,0.2,0.4,0.5l-0.5,2.9
			c-0.1,0.3-0.2,0.4-0.5,0.4h-6.8l-0.7,4.2h7.9c0.3,0,0.5,0.2,0.4,0.5l-0.5,3.1c-0.1,0.3-0.2,0.4-0.5,0.4h-12
			c-0.3,0-0.5-0.2-0.4-0.5l3.4-19.1c0.1-0.3,0.2-0.4,0.5-0.4H197c0.3,0,0.5,0.2,0.4,0.5L196.9,5.4z"/>
		<path class="st1" d="M198,21.9c-0.3,0-0.5-0.2-0.4-0.5l3.3-19.1c0.1-0.3,0.2-0.4,0.5-0.4h6.5c4.5,0,6.8,3.1,6.1,7.2
			c-0.5,2.9-2.1,4.8-4.9,5.6l3.1,6.6c0.2,0.3,0,0.6-0.3,0.6h-3.8c-0.3,0-0.5-0.1-0.6-0.4l-2.6-6.3h-1.9l-1.1,6.2
			c-0.1,0.3-0.2,0.4-0.5,0.4H198z M203.8,11.3h2.5c1.9,0,2.9-0.8,3.2-2.5c0.3-1.9-0.4-2.8-2.2-2.8h-2.5L203.8,11.3z"/>
		<path class="st1" d="M222,22.3c-4.8,0-7.2-3.5-6.4-8.5l0.9-5c0.8-4.6,4.2-7.3,9.1-7.3c4.8,0,7.3,3.3,6.5,8.3l-0.9,5
			C230.3,19.6,227,22.3,222,22.3z M222.6,18.2c2.2,0,3.6-1.4,4-3.7l0.9-5.1c0.4-2.2-0.4-3.8-2.6-3.8c-2.2,0-3.5,1.3-4,3.6l-0.9,5.1
			C219.7,16.6,220.5,18.2,222.6,18.2z"/>
	</g>
	<path class="st2" d="M26.5,10.8c0,0-3.5,0.8-5.4,1.7c-1.9,0.9-4.2-0.2-4.7-0.4c-0.5-0.2,2.4-1.9,3.9-2.1c1.5-0.3,3.8-0.4,4.8,0
		S26.5,10.8,26.5,10.8z"/>
	<path class="st3" d="M25.5,5.5c0,0,2.8,0.6,2.8,1.2s-1.1,0.3-0.5,1.1s-0.3,1-0.6,1.5c-0.2,0.6-0.6,1.4-0.6,1.4s-1.8-0.6-2.9-0.7
		C22.5,9.9,20,10,18.2,11c-1.8,1-4.2,2.3-5.1,3.4S11,17,8.4,16.6s-3.8-0.9-4.9-1.7C2.3,14.2,0,11.9,0,11.9s3.3,1,4.3-0.1
		S6.9,7.6,8,7.1s4.1-0.1,4.6-1.2c0.5-1.1,0.3-2.3-0.3-2.3c-0.6,0-1.1,0-1.1,0s3-1.8,5.6-0.8S25.5,5.5,25.5,5.5z"/>
	<path class="st4" d="M14.1,4c0,0.1,0.4,1.4-0.2,1.8c-0.5,0.4-0.5,0.4-0.5,0.4s3.1-0.4,5,0s2.1,0.5,2.1,0.5s-1.2-1.8-1.7-1.8
		s-1.5,0.3-2.1,0S14.1,4,14.1,4z"/>
	<g>
		<path class="st0" d="M32.1,22.3c-4.6,0-7.3-2.9-6.4-7.9l1-5.6c0.8-4.6,4.2-7,8.7-7c2.2,0,4.1,0.7,5.4,1.9C41,3.9,41,4.1,40.8,4.3
			l-2,2.4c-0.2,0.2-0.4,0.2-0.7,0.1c-0.9-0.6-2-1-3.2-1c-2.2,0-3.5,1.4-3.9,3.4l-1,5.6c-0.4,2.2,0.6,3.5,2.8,3.5
			c1.3,0,2.7-0.4,3.9-1.2c0.3-0.2,0.5-0.1,0.7,0.2l1.3,2.7c0.1,0.3,0.1,0.5-0.1,0.6C37,21.5,34.8,22.3,32.1,22.3z"/>
	</g>
	<path class="st3" d="M30.8,10.5c-0.2,0.7-1.3,1.1-1.6,1.1s0,0.6,0,0.6l0.4,0.4c0,0,1.6-0.9,1.6-1.4S31,9.6,31,9.6
		S30.9,10.4,30.8,10.5z"/>
	<path class="st3" d="M29.1,12.9c0,0,0.2,0.4,0.5,0.4c0.3,0,0.5,0,0.5,0s-0.2-0.2-0.2-0.4c0-0.2,0-0.4-0.2-0.4
		c-0.1-0.1-0.4-0.1-0.5,0C29.1,12.6,29.1,12.9,29.1,12.9z"/>
	<path class="st2" d="M29.5,12c0,0.3,0.2,0.7-0.2,0.7c-0.3,0-0.9-0.1-0.9-0.4s0.1-0.8,0.4-0.8C29.2,11.5,29.5,11.7,29.5,12z"/>
	<path class="st3" d="M28.9,12.8c0,0-0.2,0.4-0.5,0.5c-0.3,0-0.5,0-0.5,0s0.2-0.2,0.2-0.4c0-0.2,0.1-0.4,0.2-0.5
		c0.2-0.1,0.4-0.1,0.5,0S28.9,12.8,28.9,12.8z"/>
	<path class="st3" d="M27,9.3c0.3,0.7,1.4,2.1,1.7,2.2c0.3,0.1-0.1,0.3-0.1,0.4c0,0.1-0.1,0.3-0.1,0.3s-2.3-1.2-2.3-1.7
		c0-0.5,0.3-2.2,0.3-2.2S26.9,9.2,27,9.3z"/>
	<path class="st4" d="M28.6,11.8C28.6,11.8,28.5,11.8,28.6,11.8c-0.1,0.1-0.1,0.1-0.1,0.1s-1.3-1.1-1.5-1.1c-0.2,0-0.4-0.2-0.4-0.2
		c0,0,0.4,0,0.8,0.2C27.6,11,28.6,11.8,28.6,11.8z"/>
	<path class="st4" d="M6.2,11.6c0,0-0.3,1.3-1.5,1.4C3.5,13,3.5,13,3.5,13s3.1,2.4,4.3,2.2s2.1-1.1,2.9-1.1c0.8,0,1,0.1,1,0.1
		s-1.4-2.3-2.6-2.4S6.2,11.6,6.2,11.6z"/>
</g>
</svg>
